<svg width="1400" height="387" viewBox="0 0 1400 387" fill="none" xmlns="http://www.w3.org/2000/svg">
<g clip-path="url(#clip0_1177_5990)">
<mask id="mask0_1177_5990" style="mask-type:luminance" maskUnits="userSpaceOnUse" x="3" y="-216" width="1397" height="932">
<path d="M1400 -215.668H3V715.665H1400V-215.668Z" fill="white"/>
<path d="M3.5 715.165V-215.168H1399.5V715.165H3.5Z" stroke="white"/>
</mask>
<g mask="url(#mask0_1177_5990)">
<path d="M-29.6514 529.694C16.58 496.315 47.3885 451.667 80.9724 406.386C108.242 369.598 139.572 315.153 185.431 299.134C258.615 273.578 335.822 397.166 378.794 438.182C402.301 460.627 434.562 489.964 469.506 485.307C505.549 480.501 528.925 442 546.546 413.837C578.789 362.334 617.178 242.546 691.871 243.123C755.63 243.626 816.54 310.347 865.788 343.633C932.006 388.393 983.453 391.038 1055.43 357.565C1123.3 325.993 1187.17 277.471 1265.39 281.587C1342.2 285.629 1414.92 316.475 1491.63 323.069" stroke="#00B093" stroke-opacity="0.05" stroke-width="2.57" stroke-linecap="round" stroke-linejoin="round"/>
<g opacity="0.99">
<path d="M-29.6514 522.749C15.8722 490.264 47.1464 447.274 80.9724 403.464C108.763 367.459 140.298 315.621 185.431 299.36C256.659 273.692 335.655 393.909 378.757 433.583C402.32 455.283 435.14 484.471 469.413 479.926C504.953 475.214 528.907 436.862 546.695 409.387C579.422 358.853 619.358 241.542 692.914 241.915C755.891 242.25 817.322 307.891 866.384 340.338C932.714 384.204 984.291 387.687 1055.89 353.656C1123.79 321.395 1186.91 272.239 1265.61 276.244C1342.65 280.155 1414.66 313.981 1491.61 320.464" stroke="#00B093" stroke-opacity="0.05" stroke-width="2.56" stroke-linecap="round" stroke-linejoin="round"/>
</g>
<g opacity="0.98">
<path d="M-30.0254 514.05C14.8649 483.428 46.5861 442.784 80.6356 401.117C109.06 366.341 140.874 317.893 185.131 301.874C254.981 276.597 334.387 390.201 378.476 428.665C402.337 449.49 435.474 477.542 469.151 473.258C504.243 468.787 528.775 431.627 547.029 404.842C580.78 355.258 622.169 242.194 694.72 242.399C756.988 242.566 818.438 306.027 867.538 337.506C934.072 380.162 985.798 383.906 1056.77 349.13C1124.36 316.011 1187.1 265.328 1266.13 269.65C1343.47 273.878 1414.55 311.392 1491.81 318.265" stroke="#00B093" stroke-opacity="0.05" stroke-width="2.55" stroke-linecap="round" stroke-linejoin="round"/>
</g>
<g opacity="0.98">
<path d="M-30.0244 503.527C14.158 475.307 46.3077 437.458 80.6366 398.491C109.638 365.578 141.862 321.023 185.132 306.084C254.088 282.279 332.562 386.663 378.402 423.786C402.785 443.53 435.996 469.514 469.058 465.416C503.723 461.114 528.794 425.909 547.7 399.795C582.886 351.216 625.616 244.057 697.31 244.225C758.927 244.374 819.836 304.631 869.178 334.974C935.954 376.046 987.811 379.585 1057.85 343.989C1124.81 309.958 1187.45 256.891 1266.63 261.883C1344.31 266.782 1414.23 308.524 1491.81 316.329" stroke="#00B093" stroke-opacity="0.05" stroke-width="2.54" stroke-linecap="round" stroke-linejoin="round"/>
</g>
<g opacity="0.97">
<path d="M-30.3594 491.792C13.1525 466.609 45.7119 432.094 80.3389 396.293C110.03 365.596 142.645 325.456 184.872 311.877C253.288 289.86 329.899 383.049 378.123 418.626C403.176 437.104 436.276 460.443 468.798 456.643C503.108 452.62 528.645 420.042 548.464 394.673C585.513 347.212 629.453 247.075 700.402 247.205C761.386 247.317 821.438 303.644 871.19 332.739C938.283 371.948 990.251 374.91 1059.21 338.364C1125.26 303.346 1188.12 247.205 1267.36 253.203C1345.46 259.126 1414.01 305.544 1492 314.671" stroke="#00B093" stroke-opacity="0.05" stroke-width="2.53" stroke-linecap="round" stroke-linejoin="round"/>
</g>
<g opacity="0.96">
<path d="M-30.3574 478.826C46.8315 439.263 100.867 342.647 184.874 318.749C253.066 299.34 326.865 379.993 378.032 413.558C403.886 430.527 436.725 450.718 468.707 447.124C502.663 443.305 528.629 413.745 549.509 389.195C588.774 343.019 633.776 250.854 704.036 251.078C764.424 251.264 823.265 303.065 873.557 330.726C941.005 367.811 993.047 369.897 1060.72 332.383C1125.59 296.397 1188.96 236.605 1268.09 243.795C1346.67 250.948 1413.62 302.357 1492.02 313.198" stroke="#00B093" stroke-opacity="0.05" stroke-width="2.52" stroke-linecap="round" stroke-linejoin="round"/>
</g>
<g opacity="0.95">
<path d="M-30.3584 465.079C46.1413 431.533 103.102 346.111 184.873 326.46C253.046 310.087 323.455 377.459 377.92 408.398C404.63 423.579 437.096 440.399 468.613 437.046C502.253 433.451 528.572 407.169 550.663 383.569C592.443 338.939 638.358 255.287 708.021 255.604C767.794 255.883 825.295 302.822 876.164 328.881C943.984 363.601 996.083 364.644 1062.37 326.106C1125.89 289.188 1190 225.28 1268.87 233.829C1348.01 242.416 1413.21 299.004 1492.04 311.838" stroke="#00B093" stroke-opacity="0.05" stroke-width="2.51" stroke-linecap="round" stroke-linejoin="round"/>
</g>
<g opacity="0.95">
<path d="M-30.7119 450.944C45.4339 423.637 106.809 347.659 187.462 334.229C253.419 323.239 316.471 373.103 372.369 400.447C442.126 434.571 491.096 434.85 549.453 379.976C595.014 337.135 642.121 260.281 712.12 260.989C772.526 261.585 828.518 303.756 881.212 328.38C952.012 361.48 1003.2 358.537 1069.58 316.403C1129.36 278.479 1190.82 216.043 1266.78 223.233C1347.64 230.888 1412.31 295.523 1492.22 310.629" stroke="#00B093" stroke-opacity="0.05" stroke-width="2.5" stroke-linecap="round" stroke-linejoin="round"/>
</g>
<g opacity="0.94">
<path d="M-30.7119 436.508C44.8565 415.478 108.914 352.464 187.462 342.871C252.916 334.88 313.714 372.767 372.257 395.827C441.288 423.003 492.045 423.227 550.664 374.108C599.093 333.502 646.833 265.31 716.366 266.055C776.009 266.688 830.827 303.979 883.988 326.61C955.253 356.972 1006.29 353.023 1071.33 309.809C1129.75 270.991 1191.83 204.438 1267.64 212.801C1349.17 221.798 1411.98 292.095 1492.26 309.455" stroke="#00B093" stroke-opacity="0.05" stroke-width="2.49" stroke-linecap="round" stroke-linejoin="round"/>
</g>
<g opacity="0.93">
<path d="M-31.0488 422.181C43.9049 407.41 110.57 357.416 187.181 351.381C251.909 346.277 311.347 372.951 371.92 391.093C439.871 411.433 492.994 411.787 551.686 368.294C602.966 330.295 651.358 270.262 720.444 270.97C779.286 271.566 833.135 304.2 886.65 324.763C958.4 352.331 1009.23 347.488 1073.05 303.194C1130.14 263.556 1192.85 192.831 1268.53 202.405C1350.81 212.817 1411.68 288.702 1492.41 308.241" stroke="#00B093" stroke-opacity="0.05" stroke-width="2.48" stroke-linecap="round" stroke-linejoin="round"/>
</g>
<g opacity="0.92">
<path d="M-31.0488 408.213C43.1226 399.179 112.209 362.168 187.181 359.449C250.884 357.139 310.099 373.679 371.809 386.476C438.455 400.297 494.205 400.651 552.804 362.466C606.691 327.355 655.884 274.902 724.467 275.591C782.62 276.169 835.333 304.723 889.257 322.847C961.734 347.211 1011.73 342.275 1074.69 296.714C1130.49 256.331 1193.78 181.62 1269.33 192.256C1352.34 203.953 1411.33 285.221 1492.43 306.94" stroke="#00B093" stroke-opacity="0.05" stroke-width="2.47" stroke-linecap="round" stroke-linejoin="round"/>
</g>
<g opacity="0.92">
<path d="M-31.3652 394.913C42.1542 391.094 113.178 366.619 186.939 366.749C249.469 366.861 309.559 374.405 371.53 381.874C436.797 389.735 495.229 390.182 553.698 356.859C609.858 324.839 660.094 279.055 728.137 279.67C785.433 280.191 837.681 304.778 891.661 320.816C964.547 342.479 1014.28 337.077 1076.25 290.51C1130.9 249.439 1194.66 170.983 1270.15 182.643C1353.92 195.589 1410.97 281.979 1492.59 305.579" stroke="#00B093" stroke-opacity="0.05" stroke-width="2.45" stroke-linecap="round" stroke-linejoin="round"/>
</g>
<g opacity="0.91">
<path d="M-31.3633 382.564C41.6346 383.067 113.925 370.531 186.941 372.934C248.391 374.964 309.877 374.796 371.438 377.311C435.495 379.937 496.107 380.478 554.594 351.308C612.542 322.4 664.045 282.371 731.473 282.911C787.931 283.358 839.918 304.499 893.805 318.544C967.063 337.655 1016.46 332.141 1077.63 284.606C1131.28 242.92 1195.33 161.149 1270.85 173.61C1355.35 187.561 1410.58 278.646 1492.61 303.941" stroke="#00B093" stroke-opacity="0.05" stroke-width="2.44" stroke-linecap="round" stroke-linejoin="round"/>
</g>
<g opacity="0.9">
<path d="M-31.6807 371.479C102.711 378.725 236.785 376.75 371.177 372.839C434.396 370.995 496.367 371.851 555.171 346.091C614.385 320.125 667.434 284.716 734.192 285.144C789.886 285.498 841.835 303.771 895.555 316.064C969.167 332.903 1018.21 327.65 1078.8 279.202C1131.69 236.92 1195.82 152.411 1271.48 165.542C1356.75 180.332 1410.12 275.645 1492.76 302.169" stroke="#00B093" stroke-opacity="0.05" stroke-width="2.43" stroke-linecap="round" stroke-linejoin="round"/>
</g>
<g opacity="0.89">
<path d="M-31.6807 361.984C41.0565 368.168 113.849 375.991 186.698 380.778C247.496 384.783 310.51 373.644 371.121 368.447C433.911 363.046 496.255 364.294 555.655 341.103C615.577 317.727 670.321 285.801 736.334 286.118C791.339 286.378 843.419 302.472 896.877 313.275C970.825 328.214 1019.44 323.687 1079.7 274.364C1132.04 231.504 1195.97 145.039 1271.91 158.506C1357.87 173.743 1409.56 272.706 1492.76 300.069" stroke="#00B093" stroke-opacity="0.05" stroke-width="2.42" stroke-linecap="round" stroke-linejoin="round"/>
</g>
<g opacity="0.89">
<path d="M-31.9785 354.326C40.9821 361.479 113.272 377.163 186.456 381.745C247.85 385.601 310.231 371.929 370.898 364.105C433.595 356.021 495.547 357.847 555.767 336.482C615.876 315.154 672.426 285.37 737.638 285.519C792.084 285.65 844.481 300.365 897.66 310.051C971.943 323.592 1020.11 320.258 1080.31 270.134C1132.47 226.715 1195.84 139.133 1272.28 152.711C1358.93 168.116 1408.92 270.078 1492.91 297.59" stroke="#00B093" stroke-opacity="0.05" stroke-width="2.41" stroke-linecap="round" stroke-linejoin="round"/>
</g>
<g opacity="0.88">
<path d="M-31.96 349.036C41.2615 355.835 112.937 376.753 186.456 380.198C248.614 383.123 309.821 369.246 370.916 359.989C433.707 350.47 494.839 352.743 555.73 332.309C615.54 312.23 673.73 283.154 738.085 283.191C792.121 283.228 844.909 297.44 897.827 306.474C972.427 319.215 1020.06 317.389 1080.52 266.632C1132.75 222.784 1195.48 135.127 1272.39 148.483C1359.53 163.608 1408.31 267.451 1492.87 294.665" stroke="#00B093" stroke-opacity="0.05" stroke-width="2.4" stroke-linecap="round" stroke-linejoin="round"/>
</g>
<g opacity="0.87">
<path d="M-32.165 346.727C40.628 353.693 112.676 369.47 185.692 373.884C247.235 377.61 310.044 364.329 370.953 356.915C433.688 349.278 495.417 349.856 555.842 329.348C615.615 309.045 673.469 279.708 737.917 279.894C791.879 280.062 844.667 293.976 897.566 302.879C972.297 315.452 1019.25 312.975 1080.31 263.074C1132.5 220.419 1196.84 133.917 1272.47 147.365C1358.6 162.676 1408.72 263.652 1492.2 291.051" stroke="#00B093" stroke-opacity="0.05" stroke-width="2.39" stroke-linecap="round" stroke-linejoin="round"/>
</g>
<g opacity="0.86">
<path d="M-32.1084 344.639C40.1072 350.618 112.23 359.782 184.576 364.197C246.099 367.959 309.821 357.491 371.233 352.816C434.173 348.029 496.125 347.489 556.327 326.645C615.913 306.007 673.283 276.335 737.694 276.577C791.488 276.782 844.239 290.323 897.027 298.985C971.366 311.185 1018.19 308.429 1079.77 260.26C1132.45 219.058 1197.77 135.741 1272.22 148.873C1356.96 163.811 1408.22 260.744 1490.32 287.529" stroke="#00B093" stroke-opacity="0.05" stroke-width="2.38" stroke-linecap="round" stroke-linejoin="round"/>
</g>
<g opacity="0.85">
<path d="M-32.4082 342.704C102.561 350.267 236.3 350.323 371.325 347.92C434.711 346.784 496.515 345.741 556.828 324.32C616.135 303.272 672.891 273.115 737.246 273.32C790.853 273.488 843.511 286.564 896.187 294.908C969.744 306.569 1016.93 303.831 1078.97 258.102C1132.6 218.595 1198.42 140.121 1271.85 152.731C1354.91 166.999 1406.97 258.829 1487.68 284.179" stroke="#00B093" stroke-opacity="0.05" stroke-width="2.37" stroke-linecap="round" stroke-linejoin="round"/>
</g>
<g opacity="0.85">
<path d="M-32.4639 340.933C102.617 343.262 236.375 335.532 371.623 342.293C435.699 345.497 496.757 344.454 557.629 322.195C616.526 300.644 672.574 270.003 736.78 270.077C790.127 270.133 842.673 282.688 895.163 290.641C967.546 301.612 1015.53 299.098 1077.91 256.517C1132.82 219.022 1198.7 146.713 1271.2 158.522C1352.26 171.729 1405.07 257.523 1484.1 280.918" stroke="#00B093" stroke-opacity="0.05" stroke-width="2.36" stroke-linecap="round" stroke-linejoin="round"/>
</g>
<g opacity="0.84">
<path d="M-32.8369 339.294C35.02 337.152 101.405 321.003 169.262 319.699C239.988 318.339 307.286 328.491 377.285 336.761C438.809 344.026 497.259 343.355 555.822 321.394C615.185 299.117 671.195 267.042 736.165 266.725C789.903 266.446 843.25 279 896.187 286.525C962.088 295.913 1012.7 294.218 1070.96 258.902C1128.76 223.865 1204.61 147.961 1278.8 167.296C1354.25 186.966 1403.84 257.076 1480 277.789" stroke="#00B093" stroke-opacity="0.05" stroke-width="2.35" stroke-linecap="round" stroke-linejoin="round"/>
</g>
<g opacity="0.83">
<path d="M-32.9482 337.727C34.7597 331.73 98.8168 305.969 166.599 301.629C239.392 296.972 307.044 316.847 377.714 330.556C439.89 342.608 497.297 342.794 556.865 319.622C615.688 296.73 670.786 264.059 735.532 263.481C851.297 262.438 960.263 316.921 1069.55 257.707C1129.65 225.129 1204.01 158.427 1277.83 175.619C1350.92 192.644 1401.55 256.794 1475.33 274.657" stroke="#00B093" stroke-opacity="0.05" stroke-width="2.34" stroke-linecap="round" stroke-linejoin="round"/>
</g>
<g opacity="0.82">
<path d="M-33.3574 336.276C34.4623 326.032 95.4832 290.455 163.545 282.65C237.865 274.138 307.753 305.039 377.957 324.076C440.747 341.101 496.944 342.609 557.834 318.041C616.099 294.515 670.265 261.155 734.788 260.279C849.602 258.696 957.954 308.951 1068.07 256.74C1130.68 227.049 1203.23 169.921 1276.86 184.767C1347.49 199.016 1399.16 256.796 1470.47 271.623" stroke="#00B093" stroke-opacity="0.05" stroke-width="2.32" stroke-linecap="round" stroke-linejoin="round"/>
</g>
<g opacity="0.82">
<path d="M-33.749 334.879C34.3873 320.108 91.7574 274.733 160.397 263.148C235.611 250.463 309.559 293.546 378.217 317.388C441.529 339.368 496.422 342.646 558.858 316.476C616.545 292.298 669.724 258.249 734.024 257.038C847.926 254.896 955.755 300.736 1066.57 255.827C1131.65 229.452 1202.32 181.954 1275.87 194.285C1344.01 205.703 1396.69 256.796 1465.47 268.568" stroke="#00B093" stroke-opacity="0.05" stroke-width="2.31" stroke-linecap="round" stroke-linejoin="round"/>
</g>
<g opacity="0.81">
<path d="M-33.8975 333.449C34.6859 313.872 87.9768 259.016 157.436 243.556C233.004 226.755 312.279 282.84 378.646 310.743C442.293 337.491 495.938 342.762 559.977 314.878C617.049 290.03 669.241 255.328 733.298 253.801C846.324 251.119 953.726 292.414 1064.98 254.974C1132.32 232.306 1201.31 194.177 1274.74 203.844C1340.38 212.487 1394.02 256.614 1460.24 265.498" stroke="#00B093" stroke-opacity="0.05" stroke-width="2.3" stroke-linecap="round" stroke-linejoin="round"/>
</g>
<g opacity="0.8">
<path d="M-34.2715 332.068C35.4109 307.48 85.3117 240.927 157.099 223.698C230.488 206.077 310.378 269.761 372.609 301.11C438.846 334.471 490.013 344.175 558.448 314.316C616.097 289.152 667.526 252.364 732.495 250.725C847.31 247.801 955.252 283.787 1069.21 252.383C1135.48 234.129 1200.86 207.083 1270.99 212.894C1335.31 218.221 1390.69 256.127 1455.32 262.46" stroke="#00B093" stroke-opacity="0.05" stroke-width="2.29" stroke-linecap="round" stroke-linejoin="round"/>
</g>
<g opacity="0.79">
<path d="M-34.3818 330.561C35.7103 301.317 81.3456 225.842 154.362 205.203C227.919 184.416 312.875 260.226 372.927 294.332C439.22 331.995 489.437 344.289 559.548 312.623C616.657 286.825 667.08 249.404 731.863 247.486C845.635 244.114 954.135 275.668 1067.81 251.64C1135.02 237.427 1200.51 217.665 1270.04 221.576C1332.16 225.078 1388.17 255.384 1450.54 259.351" stroke="#00B093" stroke-opacity="0.05" stroke-width="2.28" stroke-linecap="round" stroke-linejoin="round"/>
</g>
<g opacity="0.79">
<path d="M-34.7178 329.067C35.989 295.651 77.3589 212.036 151.661 188.1C225.441 164.333 314.979 251.505 373.02 287.827C439.182 329.235 488.803 344.173 560.423 310.813C617.029 284.437 666.52 246.364 731.192 244.222C844.088 240.478 953.296 267.822 1066.53 250.574C1134.33 240.236 1200.23 227.216 1269.22 229.191C1329.42 230.923 1385.88 254.169 1446.27 256.162" stroke="#00B093" stroke-opacity="0.05" stroke-width="2.27" stroke-linecap="round" stroke-linejoin="round"/>
</g>
<g opacity="0.78">
<path d="M-34.7744 327.372C36.454 290.287 73.8936 199.296 149.481 172.678C223.633 146.582 316.897 243.832 373.299 281.961C439.2 326.497 488.486 343.652 561.298 308.783C617.476 281.886 666.091 243.273 730.67 240.963C842.802 236.977 952.774 260.391 1065.41 249.122C1133.42 242.323 1200.04 234.966 1268.51 235.394C1327.11 235.767 1383.78 252.363 1442.51 252.884" stroke="#00B093" stroke-opacity="0.05" stroke-width="2.26" stroke-linecap="round" stroke-linejoin="round"/>
</g>
<g opacity="0.77">
<path d="M-35.0342 325.623C37.0138 285.762 70.6721 188.4 147.526 159.585C222.33 131.533 318.165 237.034 373.393 276.653C438.828 323.593 488.301 342.797 561.95 306.586C617.737 279.168 665.701 240.108 730.224 237.724C841.723 233.607 952.552 253.445 1064.54 247.205C1132.54 243.423 1199.97 240.425 1268.05 239.884C1325.48 239.419 1382.08 249.999 1439.56 249.589" stroke="#00B093" stroke-opacity="0.05" stroke-width="2.25" stroke-linecap="round" stroke-linejoin="round"/>
</g>
<g opacity="0.76">
<path d="M-35.2217 323.687C37.8507 282.093 68.0259 179.367 146.072 149.155C221.901 119.799 318.909 231.224 373.466 272.128C438.473 320.856 488.206 341.196 562.415 304.092C617.997 276.301 665.29 236.812 729.887 234.446C840.865 230.386 952.532 246.982 1063.92 244.635C1188.62 242.009 1312.98 247.727 1437.5 246.125" stroke="#00B093" stroke-opacity="0.05" stroke-width="2.24" stroke-linecap="round" stroke-linejoin="round"/>
</g>
<g opacity="0.76">
<path d="M-35.1455 321.433C38.9141 279.262 66.1836 172.14 145.347 141.779C222.703 112.125 319.134 226.623 373.691 268.682C438.251 318.471 488.45 338.774 562.752 301.186C618.241 273.097 665.012 233.366 729.74 231.131C840.308 227.331 952.701 241.04 1063.59 241.32C1187.83 241.636 1312.12 243.294 1436.36 242.53" stroke="#00B093" stroke-opacity="0.05" stroke-width="2.23" stroke-linecap="round" stroke-linejoin="round"/>
</g>
<g opacity="0.75">
<path d="M-35.4805 318.264C38.8772 276.186 66.3329 169.251 145.571 138.666C223.132 108.733 318.948 223.175 373.431 265.42C437.86 315.377 488.339 335.568 562.622 298.017C617.999 270.021 664.975 229.899 729.628 228.055C840.252 224.888 953.074 235.692 1063.85 237.35C1188.14 239.212 1312.34 238.784 1436.64 239.007" stroke="#00B093" stroke-opacity="0.05" stroke-width="2.22" stroke-linecap="round" stroke-linejoin="round"/>
</g>
<g opacity="0.74">
<path d="M-35.8545 314.746C38.4473 273.171 68.5293 169.197 147.413 138.519C224.379 108.605 318.984 220.961 373.299 262.852C437.673 312.511 488.076 332.329 562.21 295.206C617.55 267.49 665.048 227.275 729.534 225.655C840.511 222.861 954.004 229.007 1064.94 232.602C1189.48 236.626 1313.59 235.285 1438.15 235.601" stroke="#00B093" stroke-opacity="0.05" stroke-width="2.21" stroke-linecap="round" stroke-linejoin="round"/>
</g>
<g opacity="0.73">
<path d="M-35.8906 311.334C38.5229 270.895 71.9764 170.274 150.73 140.378C227.379 111.265 319.283 219.858 373.691 261.489C437.841 310.57 488.078 329.253 561.69 292.856C617.235 265.401 665.068 225.577 729.535 223.919C841.127 221.032 955.272 220.79 1066.7 227.16C1191.79 234.313 1315.42 232.133 1440.57 232.264" stroke="#00B093" stroke-opacity="0.05" stroke-width="2.19" stroke-linecap="round" stroke-linejoin="round"/>
</g>
<g opacity="0.73">
<path d="M-36.04 308.168C39.0068 269.555 76.1297 172.846 154.976 144.03C231.513 116.053 319.524 219.487 374.175 260.875C437.934 309.174 488.003 326.348 560.889 290.92C616.825 263.725 664.9 224.646 729.479 222.672C842.133 219.226 956.5 211.049 1068.99 221.051C1195.13 232.283 1317.58 229.229 1443.89 228.912" stroke="#00B093" stroke-opacity="0.05" stroke-width="2.18" stroke-linecap="round" stroke-linejoin="round"/>
</g>
<g opacity="0.72">
<path d="M-36.0947 305.113C39.8462 268.809 81.0111 176.421 160.137 149.096C236.674 122.683 319.879 219.821 374.921 261.005C438.215 308.354 487.966 323.479 559.977 289.299C616.546 262.439 664.64 224.329 729.461 221.852C843.754 217.493 957.47 199.891 1071.78 214.438C1137.53 222.82 1201.44 231.966 1267.94 231.5C1327.99 231.072 1387.86 226.024 1447.93 225.577" stroke="#00B093" stroke-opacity="0.05" stroke-width="2.17" stroke-linecap="round" stroke-linejoin="round"/>
</g>
<g opacity="0.71">
<path d="M-35.8916 302.096C40.962 268.363 86.5787 180.557 166.17 155.243C242.707 130.898 320.474 220.977 376 261.862C438.604 307.963 488.244 320.816 559.026 287.921C616.228 261.341 664.434 224.497 729.497 221.405C845.951 215.854 958.102 187.43 1074.87 207.472C1139.71 218.592 1201.91 231.277 1268.09 230.476C1329.59 229.731 1390.84 223.156 1452.36 222.318" stroke="#00B093" stroke-opacity="0.05" stroke-width="2.16" stroke-linecap="round" stroke-linejoin="round"/>
</g>
<g opacity="0.7">
<path d="M-35.8535 299.212C41.8569 268.664 91.0127 189.184 169.729 163.144C248.836 136.974 325.262 226.643 382.93 267.025C442.759 308.935 493.796 316.609 560.405 285.726C617.495 259.239 665.105 225.376 729.479 221.204C845.784 213.66 956.016 173.65 1073.03 198.945C1140.1 213.436 1201.78 231.094 1271.14 229.53C1333.32 228.133 1395.1 220.254 1457.32 219.006" stroke="#00B093" stroke-opacity="0.05" stroke-width="2.15" stroke-linecap="round" stroke-linejoin="round"/>
</g>
<g opacity="0.69">
<path d="M-35.7793 296.362C43.086 268.851 96.8426 194.176 176.378 170.558C255.486 147.051 325.317 228.077 383.879 268.217C442.907 308.674 494.075 314.169 559.268 284.683C617.085 258.513 664.863 226.14 729.479 221.185C848.149 212.076 956.985 158.953 1076.74 191.215C1142.79 209.003 1201.96 230.759 1271.5 228.747C1335.35 226.903 1398.64 217.441 1462.53 215.709" stroke="#00B093" stroke-opacity="0.05" stroke-width="2.14" stroke-linecap="round" stroke-linejoin="round"/>
</g>
<g opacity="0.69">
<path d="M-35.6855 293.512C44.3905 269.037 102.673 199.336 183.159 178.139C262.043 157.37 325.541 229.809 384.905 269.502C442.852 308.264 494.653 312.027 558.133 283.659C616.471 257.581 664.77 226.959 729.479 221.222C850.292 210.53 958.327 143.567 1080.5 183.391C1145.39 204.551 1201.98 230.517 1271.83 228.002C1337.4 225.637 1402.22 214.647 1467.82 212.393" stroke="#00B093" stroke-opacity="0.05" stroke-width="2.13" stroke-linecap="round" stroke-linejoin="round"/>
</g>
<g opacity="0.68">
<path d="M-35.4258 290.587C45.8051 268.943 108.521 204.252 189.994 185.551C268.357 167.558 326.025 231.82 385.984 270.824C443.037 307.947 495.136 309.568 557.033 282.577C616.005 256.873 664.602 227.685 729.478 221.24C852.321 209.021 959.816 128.367 1084.15 175.623C1148 199.894 1201.57 230.274 1272.07 227.238C1339.32 224.332 1405.64 211.871 1472.92 209.095" stroke="#00B093" stroke-opacity="0.05" stroke-width="2.12" stroke-linecap="round" stroke-linejoin="round"/>
</g>
<g opacity="0.67">
<path d="M-35.3711 287.679C47.0705 268.754 113.884 209.093 196.438 192.59C274.036 177.074 326.564 233.717 386.933 271.883C506.386 347.377 609 234.332 729.459 221.144C853.549 207.566 962.217 112.905 1087.72 168.04C1150.33 195.551 1201.2 229.899 1272.39 226.378C1341.25 222.97 1409.03 209.056 1477.95 205.796" stroke="#00B093" stroke-opacity="0.05" stroke-width="2.11" stroke-linecap="round" stroke-linejoin="round"/>
</g>
<g opacity="0.66">
<path d="M-35.3682 284.683C48.2283 268.179 118.805 213.398 202.401 198.888C279.013 185.589 327.219 235.452 387.792 272.575C504.526 344.12 611.76 234.651 729.443 220.793C854.279 206.097 965.089 98.0248 1091.06 160.722C1152.44 191.27 1200.64 229.306 1272.67 225.338C1343.06 221.464 1412.18 206.19 1482.65 202.483" stroke="#00B093" stroke-opacity="0.05" stroke-width="2.1" stroke-linecap="round" stroke-linejoin="round"/>
</g>
<g opacity="0.66">
<path d="M-35.4258 281.589C51.8215 266.744 129.271 211.162 217.357 202.482C284.823 195.832 330.178 236.811 384.01 270.022C501.972 342.796 610.23 233.476 729.534 219.767C796.106 212.112 854.817 178.9 916.136 154.015C983.378 126.727 1034.19 119.537 1098.66 156.455C1153.27 187.729 1198.46 225.784 1264.38 224.387C1338.94 222.822 1412.33 203.357 1486.84 199.166" stroke="#00B093" stroke-opacity="0.05" stroke-width="2.09" stroke-linecap="round" stroke-linejoin="round"/>
</g>
<g opacity="0.65">
<path d="M-35.5566 278.385C52.7338 265.085 132.977 214.365 221.92 206.579C288.082 200.805 331.072 237.965 384.661 269.723C501.599 339.014 611.496 232.656 729.478 218.649C797.372 210.584 856.679 174.522 918.557 147.83C985.948 118.773 1037 110.167 1101.06 150.233C1154.67 183.761 1197.77 224.311 1264.45 222.803C1340.21 221.089 1414.62 200.302 1490.3 195.831" stroke="#00B093" stroke-opacity="0.05" stroke-width="2.08" stroke-linecap="round" stroke-linejoin="round"/>
</g>
<g opacity="0.64">
<path d="M-35.5752 274.993C53.4975 262.588 135.958 216.301 225.571 208.943C290.317 203.634 332.171 238.038 385.145 268.604C501.189 335.548 612.558 230.997 729.459 217.008C798.452 208.757 858.132 170.33 920.457 142.204C987.718 111.842 1039.46 102.045 1102.92 144.588C1155.79 180.016 1196.93 222.429 1264.44 220.808C1341.12 218.964 1416.3 197.115 1492.91 192.477" stroke="#00B093" stroke-opacity="0.05" stroke-width="2.06" stroke-linecap="round" stroke-linejoin="round"/>
</g>
<g opacity="0.63">
<path d="M-35.8916 271.476C53.684 259.35 137.728 216.993 227.787 209.356C291.36 203.954 332.861 236.867 385.22 266.465C501.283 332.068 612.652 228.523 729.385 214.813C857.76 199.744 976.952 50.0232 1104.19 139.673C1156.66 176.647 1196.02 220.085 1264.44 218.334C1341.77 216.341 1417.42 193.747 1494.68 189.09" stroke="#00B093" stroke-opacity="0.05" stroke-width="2.05" stroke-linecap="round" stroke-linejoin="round"/>
</g>
<g opacity="0.63">
<path d="M-36.2617 267.825C53.4257 255.289 138.326 215.949 228.479 207.4C291.27 201.439 333.161 234.241 385.018 263.224C501.825 328.492 612.002 225.151 729.35 211.889C857.52 197.416 977.774 44.2673 1104.71 135.724C1157.13 173.499 1195.33 217.141 1264.33 215.241C1341.98 213.099 1417.83 190.356 1495.43 185.718" stroke="#00B093" stroke-opacity="0.05" stroke-width="2.04" stroke-linecap="round" stroke-linejoin="round"/>
</g>
<g opacity="0.62">
<path d="M-36.3379 264.434C53.0887 251.935 137.71 213.099 227.565 204.4C290.635 198.291 332.731 231.26 384.848 260.355C501.88 325.678 612.112 222.393 729.628 208.74C858.748 193.746 974.829 45.0862 1103.41 133.786C1155.49 169.717 1195.65 212.708 1263.02 210.864C1341.25 208.721 1418.35 188.027 1496.47 182.868" stroke="#00B093" stroke-opacity="0.05" stroke-width="2.03" stroke-linecap="round" stroke-linejoin="round"/>
</g>
<g opacity="0.61">
<path d="M-36.4707 261.08C52.4157 248.767 136.552 210.49 225.83 201.772C289.31 195.57 331.834 228.893 384.324 258.155C502.157 323.814 611.961 219.933 730.184 206.112C798.693 198.103 856.939 159.639 918.463 131.177C985.425 100.201 1036.5 92.3034 1100.37 132.854C1152.97 166.251 1194.42 207.062 1260.37 205.442C1339.95 203.486 1419 185.642 1498.46 180.482" stroke="#00B093" stroke-opacity="0.05" stroke-width="2.02" stroke-linecap="round" stroke-linejoin="round"/>
</g>
<g opacity="0.6">
<path d="M-36.6523 257.765C51.489 245.714 134.899 208.088 223.413 199.464C287.396 193.224 330.554 227.068 383.528 256.517C502.664 322.772 611.612 217.718 730.971 203.897C797.934 196.148 854.764 159.64 915.133 132.277C981.295 102.288 1031.77 95.9365 1095.87 132.761C1149.08 163.328 1192.26 200.358 1256.63 199.11C1338.26 197.526 1419.79 183.202 1501.28 178.453" stroke="#00B093" stroke-opacity="0.05" stroke-width="2.01" stroke-linecap="round" stroke-linejoin="round"/>
</g>
<g opacity="0.6">
<path d="M-36.877 254.45C49.3831 242.92 130.838 207.008 217.284 197.732C286.612 190.3 329.212 227.516 386.693 257.84C504.936 320.221 614.013 216.489 731.79 202.37C795.865 194.696 850.479 161.596 908.482 135.742C971.161 107.802 1023.17 100.426 1085.9 131.328C1142.58 159.249 1188.98 193.597 1255.01 191.864C1338.33 189.666 1421.55 180.595 1504.83 176.739" stroke="#00B093" stroke-opacity="0.05" stroke-width="2" stroke-linecap="round" stroke-linejoin="round"/>
</g>
<g opacity="0.59">
<path d="M-37.1182 251.154C48.0616 240.034 128.51 204.866 213.858 195.888C283.819 188.531 327.48 226.511 385.558 257.077C505.812 320.389 613.455 214.589 733.001 200.75C794.898 193.579 847.518 163.124 903.864 138.816C965.127 112.385 1016.91 107.076 1079.16 132.837C1136.75 156.679 1185.28 185.178 1249.69 184.191C1336.11 182.868 1422.58 178.007 1508.97 175.287" stroke="#00B093" stroke-opacity="0.05" stroke-width="1.99" stroke-linecap="round" stroke-linejoin="round"/>
</g>
<g opacity="0.58">
<path d="M-37.3994 247.874C46.5882 237.22 125.938 202.854 210.037 194.192C280.67 186.928 325.523 225.764 384.234 256.61C506.779 320.984 612.727 212.763 734.285 199.352C793.76 192.795 844.219 165.191 898.721 142.578C958.308 117.86 1010.28 114.582 1071.61 134.792C1129.97 154.015 1180.99 176.273 1243.74 176.069C1333.63 175.771 1423.58 175.323 1513.46 174.02" stroke="#00B093" stroke-opacity="0.05" stroke-width="1.98" stroke-linecap="round" stroke-linejoin="round"/>
</g>
<g opacity="0.57">
<path d="M-37.5293 244.598C45.1545 234.409 123.331 200.862 206.145 192.611C277.448 185.495 323.549 225.301 382.912 256.407C507.915 321.898 612.001 210.939 735.72 198.106C792.661 192.201 840.699 167.446 893.301 146.826C951.156 124.158 1003.46 122.574 1063.57 137.103C1122.41 151.334 1176.18 167.129 1237.39 167.688C1331.01 168.545 1424.55 172.624 1518.17 172.96" stroke="#00B093" stroke-opacity="0.05" stroke-width="1.97" stroke-linecap="round" stroke-linejoin="round"/>
</g>
<g opacity="0.56">
<path d="M-37.8467 241.317C43.5146 231.631 120.499 198.941 201.953 191.062C273.628 184.133 321.778 224.478 381.421 256.218C508.269 323.721 611.758 208.943 737.116 196.892C791.357 191.676 837.141 169.958 887.657 151.275C943.611 130.581 996.809 130.562 1055.22 139.522C1209.66 163.196 1366.75 168.542 1523.09 171.895" stroke="#00B093" stroke-opacity="0.05" stroke-width="1.96" stroke-linecap="round" stroke-linejoin="round"/>
</g>
<g opacity="0.56">
<path d="M-38.2939 238.06C40.8694 229.045 115.637 198.031 194.744 189.854C266.364 182.46 315.78 220.551 375.255 253.464C434.749 286.396 487.984 287.03 550.719 261.306C613.528 235.527 669.426 201.012 738.401 195.61C792.344 191.382 837.551 170.315 888.308 153.607C941.599 136.061 996.157 138.463 1051.44 142.282C1209.92 153.197 1369.43 164.801 1528.13 170.855" stroke="#00B093" stroke-opacity="0.05" stroke-width="1.95" stroke-linecap="round" stroke-linejoin="round"/>
</g>
<g opacity="0.55">
<path d="M-38.5742 234.782C39.3039 226.251 112.898 196.058 190.72 188.253C263.01 181.007 313.619 219.993 373.727 253.167C434.059 286.471 487.35 287.57 550.923 261.232C613.843 235.174 670.394 199.261 739.741 194.4C790.871 190.805 833.973 172.83 882.477 158.171C934.334 142.487 989.674 145.114 1043.37 144.201C1102.53 143.195 1162.45 139.358 1221.52 142.208C1325.64 147.219 1428.87 164.187 1533 169.757" stroke="#00B093" stroke-opacity="0.05" stroke-width="1.93" stroke-linecap="round" stroke-linejoin="round"/>
</g>
<g opacity="0.54">
<path d="M-38.8164 231.501C37.8323 223.398 110.346 194.024 186.92 186.573C259.862 179.476 311.588 219.282 372.293 252.698C433.388 286.338 486.772 287.902 551.127 260.987C614.123 234.649 671.362 197.395 741.008 193.055C789.4 190.038 830.62 174.969 876.926 162.284C927.982 148.314 983.21 150.94 1035.74 145.837C1095.31 140.044 1155.66 130.507 1215.56 134.046C1323.31 140.416 1429.8 161.334 1537.56 168.524" stroke="#00B093" stroke-opacity="0.05" stroke-width="1.92" stroke-linecap="round" stroke-linejoin="round"/>
</g>
<g opacity="0.53">
<path d="M-39.04 228.188C36.4911 220.477 107.999 191.866 183.437 184.732C256.994 177.766 309.707 218.298 370.989 251.956C432.792 285.894 486.213 287.905 551.276 260.468C614.328 233.888 672.219 195.405 742.162 191.531C787.984 188.979 827.64 176.574 871.86 165.77C922.804 153.328 976.914 155.954 1028.83 147.088C1088.94 136.843 1148.82 122.147 1210.14 126.319C1321.25 133.9 1430.66 158.506 1541.75 167.111" stroke="#00B093" stroke-opacity="0.05" stroke-width="1.91" stroke-linecap="round" stroke-linejoin="round"/>
</g>
<g opacity="0.53">
<path d="M-39.2266 224.868C34.4419 217.604 104.162 190.39 177.644 182.977C255.075 175.153 309.874 219.224 374.844 253.423C438.045 286.69 488.877 286.001 554.07 258.284C616.6 231.704 674.026 193.519 743.522 189.626C786.4 187.224 824.026 177.649 865.75 168.634C916.154 157.738 967.731 160.457 1018.43 148.871C1082.06 134.324 1142.95 113.872 1209.04 119.478C1321.84 129.034 1432.54 155.875 1545.42 165.486" stroke="#00B093" stroke-opacity="0.05" stroke-width="1.9" stroke-linecap="round" stroke-linejoin="round"/>
</g>
<g opacity="0.52">
<path d="M-39.3721 221.534C33.4768 214.512 102.507 187.932 175.17 180.705C253.104 172.937 308.593 217.511 374.047 251.915C437.694 285.387 488.508 284.977 554.167 256.906C616.808 230.121 674.644 191.173 744.382 187.485C785.305 185.324 822.093 177.65 862.177 170.05C913.009 160.42 963.097 163.326 1013.63 149.151C1077.91 131.139 1137.16 106.887 1205.19 113.015C1320.41 123.409 1433.08 153.175 1548.4 163.512" stroke="#00B093" stroke-opacity="0.05" stroke-width="1.89" stroke-linecap="round" stroke-linejoin="round"/>
</g>
<g opacity="0.51">
<path d="M-39.4668 218.185C32.786 211.294 101.295 185.291 173.343 178.138C251.705 170.352 307.66 215.28 373.505 249.869C437.45 283.453 488.208 283.286 554.165 254.973C616.974 228.002 674.996 188.681 744.995 184.974C784.391 182.888 820.731 176.629 859.531 170.166C910.773 161.635 959.873 164.708 1010.28 148.596C1075.13 127.846 1132.56 100.949 1202.37 107.45C1319.4 118.328 1433.46 150.664 1550.62 161.244" stroke="#00B093" stroke-opacity="0.05" stroke-width="1.88" stroke-linecap="round" stroke-linejoin="round"/>
</g>
<g opacity="0.5">
<path d="M-39.5059 214.812C32.3744 207.958 100.604 182.402 172.279 175.231C250.977 167.352 307.136 212.428 373.298 247.167C437.318 280.788 488.039 280.788 554.089 252.364C617.159 225.206 675.069 185.997 745.31 181.974C783.737 179.776 819.984 174.411 857.964 168.693C909.467 160.944 958.381 164.334 1008.58 146.974C1073.96 124.38 1129.45 96.1977 1200.69 102.773C1318.81 113.688 1433.55 148.203 1551.84 158.467" stroke="#00B093" stroke-opacity="0.05" stroke-width="1.87" stroke-linecap="round" stroke-linejoin="round"/>
</g>
<g opacity="0.5">
<path d="M-39.5957 211.608C32.266 204.772 100.477 179.254 172.152 172.045C250.664 164.148 307.158 209.168 373.264 243.702C437.433 277.212 487.893 277.342 554.055 248.955C617.087 221.909 675.035 182.886 745.164 178.732C783.61 176.46 819.988 171.151 858.023 165.489C909.526 157.815 958.458 161.242 1008.62 143.845C1074.24 121.083 1129.6 92.9007 1201.16 99.4759C1319.09 110.317 1433.55 145.204 1551.68 155.244" stroke="#00B093" stroke-opacity="0.05" stroke-width="1.86" stroke-linecap="round" stroke-linejoin="round"/>
</g>
<g opacity="0.49">
<path d="M-39.8779 208.982C32.1514 202.183 100.455 176.497 172.261 169.233C250.344 161.335 307.193 205.853 373.168 239.883C437.393 273.02 487.648 273.3 553.847 245.192C616.656 218.519 674.622 179.924 744.379 175.77C783.439 173.442 820.171 167.817 858.766 161.838C910.287 153.866 959.424 157.162 1009.77 140.249C1075.56 118.14 1131.96 90.33 1203.32 96.9052C1320.05 107.653 1433.38 142 1550.32 151.947" stroke="#00B093" stroke-opacity="0.05" stroke-width="1.85" stroke-linecap="round" stroke-linejoin="round"/>
</g>
<g opacity="0.48">
<path d="M-39.9873 206.898C32.2469 200.081 100.681 174.171 172.692 166.851C250.253 158.953 307.363 202.652 373.245 236.012C437.358 268.478 487.557 268.888 553.551 241.265C616.118 215.076 673.861 177.301 743.152 173.147C783.125 170.763 820.453 164.541 859.886 158.134C911.556 149.733 961.252 152.956 1011.94 136.676C1077.91 115.479 1135.52 88.3583 1206.62 94.8777C1321.47 105.42 1432.97 139.097 1548.05 148.82" stroke="#00B093" stroke-opacity="0.05" stroke-width="1.84" stroke-linecap="round" stroke-linejoin="round"/>
</g>
<g opacity="0.47">
<path d="M-40.1006 205.237C32.3758 198.364 101.015 172.231 173.268 164.817C250.271 156.901 307.548 199.463 373.356 232.004C437.189 263.576 487.463 264.098 553.084 237.126C615.39 211.533 672.723 174.894 741.474 170.722C782.602 168.226 820.749 161.278 861.244 154.331C913.156 145.427 963.709 148.594 1014.88 133.096C1081.08 113.035 1140.03 86.8276 1210.83 93.2724C1323.22 103.498 1432.34 136.393 1544.95 145.762" stroke="#00B093" stroke-opacity="0.05" stroke-width="1.83" stroke-linecap="round" stroke-linejoin="round"/>
</g>
<g opacity="0.47">
<path d="M-40.2119 203.955C33.4379 196.876 103.213 169.849 176.714 162.79C249.861 155.767 305.816 194.231 368.476 225.524C431.21 256.836 484.371 260.356 549.881 234.074C612.522 208.928 670.284 172.531 739.146 168.601C782.267 166.142 822.166 157.816 864.523 150.217C918.111 140.587 970.21 143.511 1023.22 128.07C1086.59 109.611 1144.98 86.3272 1212.25 91.7103C1322.98 100.577 1430.4 133.732 1541.25 142.785" stroke="#00B093" stroke-opacity="0.05" stroke-width="1.82" stroke-linecap="round" stroke-linejoin="round"/>
</g>
<g opacity="0.46">
<path d="M-40.416 202.947C33.5877 195.795 103.624 168.488 177.441 161.261C250.011 154.164 305.965 191.101 368.644 221.388C430.932 251.488 484.316 255.009 549.193 229.658C611.517 205.294 668.683 170.444 736.875 166.476C781.504 163.887 822.613 154.518 866.349 146.21C920.329 135.947 973.787 138.89 1027.45 124.51C1091.19 107.43 1150.87 85.4129 1217.96 90.6842C1325.38 99.1221 1429.56 131.29 1537.1 139.803" stroke="#00B093" stroke-opacity="0.05" stroke-width="1.8" stroke-linecap="round" stroke-linejoin="round"/>
</g>
<g opacity="0.45">
<path d="M-40.5117 202.147C33.8459 194.883 104.162 167.278 178.333 159.902C250.269 152.768 306.205 188.065 368.921 217.272C430.687 246.032 484.35 249.515 548.482 225.17C610.434 201.644 666.966 168.489 734.413 164.503C780.663 161.783 823.095 151.315 868.302 142.225C922.785 131.273 977.622 134.29 1032.05 121.009C1096.18 105.363 1157.13 84.7805 1224.07 89.9215C1327.9 97.8937 1428.55 128.982 1532.51 136.917" stroke="#00B093" stroke-opacity="0.05" stroke-width="1.79" stroke-linecap="round" stroke-linejoin="round"/>
</g>
<g opacity="0.44">
<path d="M-40.6973 201.478C34.0516 194.12 104.665 166.218 179.209 158.655C250.512 151.428 306.429 185.012 369.164 213.101C430.353 240.501 484.351 243.947 547.719 220.663C609.299 198.032 665.16 166.59 731.844 162.604C779.789 159.736 823.617 148.075 870.37 138.203C925.468 126.561 981.646 129.765 1036.93 117.509C1101.43 103.222 1163.7 84.2603 1230.54 89.2709C1330.6 96.7588 1427.61 126.729 1527.82 134.031" stroke="#00B093" stroke-opacity="0.05" stroke-width="1.78" stroke-linecap="round" stroke-linejoin="round"/>
</g>
<g opacity="0.44">
<path d="M-40.7695 200.84C34.3518 193.371 105.264 165.151 180.18 157.44C250.831 150.175 306.748 182.046 369.483 208.961C430.336 235.057 484.167 238 546.976 216.114C608.333 194.749 663.244 164.704 729.238 160.737C778.86 157.757 824.178 144.848 872.44 134.194C928.264 121.882 985.616 125.141 1041.87 114.04C1106.84 101.225 1170.19 83.8273 1237.04 88.6888C1333.28 95.6738 1426.55 124.508 1522.96 131.195" stroke="#00B093" stroke-opacity="0.05" stroke-width="1.77" stroke-linecap="round" stroke-linejoin="round"/>
</g>
<g opacity="0.43">
<path d="M-40.8438 200.17C35.5442 192.44 107.723 163.196 183.999 155.876C254.706 149.096 311.349 181.469 374.717 206.82C436.483 231.519 491.003 230.96 553.459 208.999C611.928 188.454 664.12 163.14 726.724 158.893C775.787 155.578 820.77 143.023 868.361 131.605C925.359 117.933 983.716 121.063 1041.37 111.451C1107.53 100.406 1172.63 83.5299 1240.26 87.7954C1333.82 93.7 1424.46 122.087 1518.13 128.29" stroke="#00B093" stroke-opacity="0.05" stroke-width="1.76" stroke-linecap="round" stroke-linejoin="round"/>
</g>
<g opacity="0.42">
<path d="M-41.0127 199.41C35.7664 191.587 108.206 162.045 184.854 154.557C254.928 147.721 311.609 178.399 374.939 202.595C436.091 225.934 490.909 225.562 552.656 204.644C610.679 184.974 662.405 161.169 724.208 156.978C774.817 153.551 821.179 139.86 870.148 127.734C928.096 113.392 987.198 116.447 1045.98 107.86C1112.7 98.1365 1178.72 82.9185 1246.57 87.0909C1336.49 92.6044 1423.56 119.799 1513.59 125.425" stroke="#00B093" stroke-opacity="0.05" stroke-width="1.75" stroke-linecap="round" stroke-linejoin="round"/>
</g>
<g opacity="0.41">
<path d="M-41.2002 198.443C35.9142 190.545 108.651 160.705 185.617 153.068C255.076 146.177 311.85 175.327 375.124 198.406C435.717 220.516 490.796 220.292 551.91 200.324C609.504 181.511 660.82 159.066 721.86 154.931C773.884 151.411 821.55 136.621 871.786 123.862C930.646 108.905 990.344 111.829 1050.23 104.267C1117.47 95.7541 1184.32 82.1194 1252.44 86.1614C1338.96 91.3023 1422.73 117.361 1509.36 122.483" stroke="#00B093" stroke-opacity="0.05" stroke-width="1.74" stroke-linecap="round" stroke-linejoin="round"/>
</g>
<g opacity="0.4">
<path d="M-41.2754 197.19C36.1557 189.199 109.116 159.099 186.38 151.331C255.392 144.402 311.998 172.472 375.329 194.303C435.623 215.09 490.572 215.239 551.295 196.072C608.46 178.042 659.46 156.807 719.792 152.728C773.082 149.115 821.922 133.375 873.294 120.02C932.955 104.504 993.119 107.316 1053.97 100.648C1121.68 93.2346 1189.28 80.9969 1257.66 84.9457C1341.14 89.7701 1421.94 114.767 1505.56 119.461" stroke="#00B093" stroke-opacity="0.05" stroke-width="1.73" stroke-linecap="round" stroke-linejoin="round"/>
</g>
<g opacity="0.4">
<path d="M-41.46 195.608C36.2505 187.58 109.397 157.238 186.922 149.358C255.356 142.411 312.26 169.382 375.423 190.3C435.383 210.156 490.406 210.435 550.756 191.995C607.53 174.653 658.325 154.406 718.024 150.364C772.395 146.695 822.221 130.117 874.562 116.259C934.875 100.296 995.412 102.922 1057.03 97.0548C1125.17 90.5727 1193.43 79.5271 1262.09 83.4014C1343 87.965 1421.33 112.031 1502.37 116.408" stroke="#00B093" stroke-opacity="0.05" stroke-width="1.72" stroke-linecap="round" stroke-linejoin="round"/>
</g>
<g opacity="0.39">
<path d="M-41.5518 193.596C36.3636 185.549 109.66 154.964 187.407 147.029C255.488 140.081 312.355 166.55 375.537 186.406C435.514 205.256 490.128 205.964 550.422 188.026C606.843 171.244 657.544 151.76 716.721 147.755C771.949 144.011 822.521 126.838 875.607 112.57C936.367 96.2527 997.127 98.6741 1059.32 93.4773C1127.81 87.7589 1196.67 77.6074 1265.56 81.4444C1344.48 85.8403 1420.87 109.068 1499.92 113.277" stroke="#00B093" stroke-opacity="0.05" stroke-width="1.71" stroke-linecap="round" stroke-linejoin="round"/>
</g>
<g opacity="0.38">
<path d="M-41.7578 191.064C36.3252 183.036 109.714 152.283 187.592 144.292C255.189 137.363 312.521 163.347 375.48 182.644C435.457 201.029 489.903 201.83 550.179 184.265C606.338 167.911 657.059 148.874 715.845 144.87C771.669 141.07 822.687 123.523 876.313 108.976C937.26 92.4541 998.169 94.6148 1060.62 89.9208C1129.39 84.7426 1198.78 75.1499 1267.85 78.987C1345.44 83.2898 1420.6 105.884 1498.35 110.038" stroke="#00B093" stroke-opacity="0.05" stroke-width="1.7" stroke-linecap="round" stroke-linejoin="round"/>
</g>
<g opacity="0.37">
<path d="M-41.9629 187.991C37.1259 179.963 111.521 148.018 190.535 140.754C254.201 134.886 310.975 158.486 370.357 177.429C431.434 196.932 485.786 198.832 547.683 181.267C604.457 165.155 656.183 145.392 715.584 141.61C772.581 137.978 824.177 119.463 878.94 104.767C940.836 88.1705 1003.07 90.8528 1066.49 86.0657C1132.65 81.0738 1199.3 72.6545 1265.76 75.7093C1343.94 79.3042 1419.62 102.494 1497.87 106.704" stroke="#00B093" stroke-opacity="0.05" stroke-width="1.69" stroke-linecap="round" stroke-linejoin="round"/>
</g>
<g opacity="0.37">
<path d="M-42.1123 184.769C37.0883 176.964 111.129 143.529 190.218 136.47C254.163 130.751 309.857 154.426 369.258 173.853C430.539 193.914 484.221 194.622 546.509 177.858C603.507 162.51 656.593 143.213 715.937 139.394C773.158 135.706 824.326 116.8 879.181 101.601C941.059 84.464 1003.29 88.2452 1066.73 82.7504C1132.88 77.0134 1199.11 68.1284 1265.63 71.1459C1343.92 74.685 1419.3 99.3653 1497.7 103.221" stroke="#00B093" stroke-opacity="0.05" stroke-width="1.67" stroke-linecap="round" stroke-linejoin="round"/>
</g>
<g opacity="0.36">
<path d="M-42.1865 181.472C37.1072 173.593 110.664 138.388 189.809 131.254C253.735 125.48 308.274 149.546 367.228 169.849C489.81 212.038 594.976 146.454 716.776 138.519C774.276 134.775 824.997 114.975 879.852 99.0489C941.581 81.1114 1003.78 85.6377 1067.12 79.0439C1133.06 72.1892 1198.78 62.0936 1265.26 65.2229C1343.66 68.911 1418.65 95.5657 1497.2 99.4214" stroke="#00B093" stroke-opacity="0.05" stroke-width="1.66" stroke-linecap="round" stroke-linejoin="round"/>
</g>
<g opacity="0.35">
<path d="M-42.335 178.138C37.0519 169.924 109.994 132.764 189.195 125.238C252.935 119.185 306.095 144.051 364.285 165.398C484.558 209.506 597.007 146.678 717.95 138.761C775.748 134.98 826.04 113.858 880.859 96.9632C942.327 78.0199 1004.48 82.9746 1067.68 74.9651C1133.27 66.639 1198.35 54.7365 1264.75 58.108C1343.3 62.0941 1417.81 91.1703 1496.51 95.3054" stroke="#00B093" stroke-opacity="0.05" stroke-width="1.65" stroke-linecap="round" stroke-linejoin="round"/>
</g>
<g opacity="0.34">
<path d="M-42.5049 174.765C36.9565 165.992 109.191 126.671 188.429 118.55C251.89 112.049 303.43 138.034 360.613 160.609C478.148 207.027 599.482 147.831 719.4 139.952C777.534 136.134 827.416 113.335 882.104 95.3226C943.2 75.1871 1005.34 80.3281 1068.28 70.5863C1133.38 60.5279 1197.71 46.2972 1263.99 50.0039C1342.7 54.4184 1416.62 86.2514 1495.52 90.9267" stroke="#00B093" stroke-opacity="0.05" stroke-width="1.64" stroke-linecap="round" stroke-linejoin="round"/>
</g>
<g opacity="0.34">
<path d="M-42.6709 171.375C36.8836 161.875 108.28 120.263 187.592 111.36C250.699 104.263 300.451 131.626 356.387 155.58C470.829 204.605 602.426 149.731 721.134 141.945C779.622 138.108 829.113 113.334 883.615 94.0557C944.282 72.6164 1006.4 77.7015 1069.02 66.0225C1133.49 54.0083 1197.05 37.0208 1263.17 41.1746C1342.09 46.1479 1415.29 81.017 1494.44 86.4187" stroke="#00B093" stroke-opacity="0.05" stroke-width="1.63" stroke-linecap="round" stroke-linejoin="round"/>
</g>
<g opacity="0.33">
<path d="M-42.8379 167.946C36.8284 157.57 107.293 113.574 186.661 103.721C249.396 95.9348 297.211 124.843 351.731 150.306C411.243 178.097 466.583 173.198 530.416 165.319C594.79 157.366 658.344 148.723 723.053 144.476C781.914 140.62 831.069 113.612 885.292 93.0291C945.474 70.1741 1007.59 75.0543 1069.81 61.2706C1133.51 47.1516 1196.21 27.072 1262.24 31.7473C1341.38 37.354 1413.82 75.4455 1493.19 81.7599" stroke="#00B093" stroke-opacity="0.05" stroke-width="1.62" stroke-linecap="round" stroke-linejoin="round"/>
</g>
<g opacity="0.32">
<path d="M-43.0801 164.519C36.7166 153.194 106.194 106.758 185.637 95.8615C248.017 87.3118 293.82 117.86 346.739 144.905C405.431 174.876 461.907 169.176 525.909 163.346C592.369 157.311 658.512 151.779 725.065 147.42C784.316 143.527 833.156 114.153 887.061 92.192C946.722 67.8656 1008.9 72.4477 1070.63 56.3916C1133.45 40.0746 1195.3 16.6795 1261.22 21.9322C1340.62 28.2467 1412.2 69.7096 1491.87 77.0299" stroke="#00B093" stroke-opacity="0.05" stroke-width="1.61" stroke-linecap="round" stroke-linejoin="round"/>
</g>
<g opacity="0.31">
<path d="M-43.2295 161.075C36.6975 148.726 105.132 99.8122 184.649 87.8352C246.732 78.4847 290.411 110.783 341.653 139.431C399.359 171.692 457.232 165.248 521.308 161.411C589.854 157.313 658.698 155.059 727.169 150.533C786.719 146.602 835.521 114.918 888.905 91.3929C947.933 65.3901 1010.31 69.7674 1071.48 51.4201C1133.32 32.8679 1194.31 6.02691 1260.19 11.8571C1339.87 18.9166 1410.54 63.7882 1490.51 72.1702" stroke="#00B093" stroke-opacity="0.05" stroke-width="1.6" stroke-linecap="round" stroke-linejoin="round"/>
</g>
<g opacity="0.31">
<path d="M-43.3965 157.627C36.6982 144.234 104.034 92.8805 183.663 79.7859C245.503 69.6158 287.078 103.665 336.569 133.934C393.175 168.542 452.613 161.445 516.707 159.452C587.265 157.273 658.885 158.335 729.275 153.659C789.104 149.673 837.943 115.661 890.75 90.6267C949.125 62.9474 1011.77 67.1384 1072.32 46.4628C1133.12 25.7127 1193.25 -4.63012 1259.11 1.79608C1339.11 9.60065 1408.81 57.881 1489.09 67.3433" stroke="#00B093" stroke-opacity="0.05" stroke-width="1.59" stroke-linecap="round" stroke-linejoin="round"/>
</g>
<g opacity="0.3">
<path d="M-43.5459 154.203C36.7164 139.805 102.953 86.067 182.694 71.8921C244.404 60.921 283.874 96.6655 331.595 128.517C386.991 165.472 448.142 157.761 512.199 157.463C584.657 157.128 659.033 161.486 731.323 156.606C791.506 152.546 840.196 116.112 892.537 89.7737C950.41 60.6602 1013.16 64.4973 1073.14 41.5679C1132.88 18.713 1192.13 -15.0758 1258.09 -8.0722C1338.4 0.458813 1407.14 52.0547 1487.73 62.5788" stroke="#00B093" stroke-opacity="0.05" stroke-width="1.58" stroke-linecap="round" stroke-linejoin="round"/>
</g>
<g opacity="0.29">
<path d="M-43.751 150.775C36.7349 135.483 101.854 79.4349 181.743 64.2355C243.435 52.5007 280.893 89.8099 326.92 123.189C381.03 162.417 443.951 154.146 507.915 155.357C582.124 156.773 659.164 164.242 733.242 159.194C793.797 155.078 842.301 116.316 894.232 88.7668C951.658 58.2936 1014.56 61.8886 1073.96 36.7612C1132.65 11.9318 1191.05 -25.1539 1257.17 -17.5915C1337.84 -8.37125 1405.57 46.4098 1486.52 57.8838" stroke="#00B093" stroke-opacity="0.05" stroke-width="1.57" stroke-linecap="round" stroke-linejoin="round"/>
</g>
<g opacity="0.28">
<path d="M-43.8818 147.382C36.8089 131.289 100.885 73.0619 180.905 56.987C242.689 44.5817 278.229 83.3065 322.672 118.101C375.479 159.434 440.188 150.605 504.003 153.119C579.758 156.1 659.275 166.475 734.992 161.259C795.92 157.049 844.238 116.201 895.74 87.5348C952.775 55.7949 1015.83 59.3154 1074.67 32.1577C1132.43 5.50293 1189.91 -34.563 1256.28 -26.4977C1337.29 -16.6628 1404.04 41.0798 1485.35 53.3548" stroke="#00B093" stroke-opacity="0.05" stroke-width="1.56" stroke-linecap="round" stroke-linejoin="round"/>
</g>
<g opacity="0.27">
<path d="M-44.0674 144.031C36.8841 127.36 99.9354 67.0652 180.142 50.2639C242.15 37.2811 275.939 77.1422 318.985 113.241C370.506 156.473 436.929 147.048 500.558 150.643C577.653 155.002 659.331 167.91 736.52 162.545C797.821 158.28 845.896 115.588 897.064 85.934C953.8 53.0579 1016.98 56.7087 1075.32 27.7443C1132.28 -0.531011 1188.85 -43.1861 1255.57 -34.6923C1336.93 -24.3359 1402.72 36.089 1484.42 48.9787" stroke="#00B093" stroke-opacity="0.05" stroke-width="1.54" stroke-linecap="round" stroke-linejoin="round"/>
</g>
<g opacity="0.27">
<path d="M-44.1797 140.696C37.0326 123.634 99.1525 61.4582 179.527 44.1726C241.851 30.7801 274.113 71.4793 315.986 108.733C366.333 153.53 434.321 143.471 497.689 147.923C575.902 153.437 659.275 168.413 737.712 162.918C799.385 158.596 847.144 114.432 898.069 83.9406C954.601 50.0959 1017.89 54.1565 1075.84 23.6461C1132.21 -6.02623 1187.79 -50.7302 1254.97 -41.9012C1336.67 -31.1722 1401.53 31.6183 1483.62 44.8618" stroke="#00B093" stroke-opacity="0.05" stroke-width="1.53" stroke-linecap="round" stroke-linejoin="round"/>
</g>
<g opacity="0.26">
<path d="M-44.3467 137.419C37.1822 120.282 98.4454 56.4113 179.024 38.8836C241.796 25.2302 272.791 66.3207 313.844 104.617C363.168 150.625 432.44 139.822 495.547 144.907C574.636 151.296 659.145 167.78 738.569 162.192C800.615 157.833 848.001 112.627 898.796 81.4455C955.216 46.7999 1018.62 51.6242 1076.29 19.8657C1132.32 -10.9986 1186.89 -57.0251 1254.64 -47.9726C1336.67 -37.0201 1400.65 27.7262 1483.17 41.0256" stroke="#00B093" stroke-opacity="0.05" stroke-width="1.52" stroke-linecap="round" stroke-linejoin="round"/>
</g>
<g opacity="0.25">
<path d="M-44.4971 134.176C37.3485 117.282 97.9038 51.9394 178.688 34.5049C242.018 20.8329 272.007 61.7929 312.669 100.965C361.229 147.736 431.433 136.057 494.205 141.534C573.89 148.481 658.846 165.804 738.978 160.179C801.377 155.802 848.279 110.11 899.074 78.3893C955.531 43.1476 1018.97 49.1454 1076.51 16.5115C1132.56 -15.2656 1186.02 -61.8323 1254.45 -52.7052C1336.76 -41.7341 1400 24.5396 1482.93 37.5038" stroke="#00B093" stroke-opacity="0.05" stroke-width="1.51" stroke-linecap="round" stroke-linejoin="round"/>
</g>
<g opacity="0.24">
<path d="M-44.626 130.844C36.9961 113.782 97.9425 49.6128 178.503 31.8802C241.275 18.0593 272.12 59.0752 312.932 97.5579C362.18 143.976 431.304 132.371 494.467 138.052C574.077 145.205 658.754 162.751 738.867 157.07C801.434 152.637 848.187 106.964 899.075 75.0941C955.458 39.7966 1018.92 45.6826 1076.55 13.2536C1132.52 -18.2255 1186.37 -64.7549 1254.55 -55.4043C1336.6 -44.1538 1400.52 20.5552 1483.1 33.9478" stroke="#00B093" stroke-opacity="0.05" stroke-width="1.5" stroke-linecap="round" stroke-linejoin="round"/>
</g>
<g opacity="0.24">
<path d="M-44.7744 127.752C36.3075 110.745 98.1666 49.1656 178.243 31.3772C239.99 17.6493 272.661 57.9388 314.31 94.7823C364.994 139.635 432.422 128.813 495.995 134.737C574.972 142.113 658.96 159.957 738.496 154.276C801.174 149.806 847.983 104.114 898.983 72.2068C955.254 37.0024 1018.7 42.2924 1076.59 10.7574C1132.67 -19.7903 1187.31 -65.3511 1254.86 -56.0192C1336.34 -44.7687 1401.72 16.4572 1483.56 30.1105" stroke="#00B093" stroke-opacity="0.05" stroke-width="1.49" stroke-linecap="round" stroke-linejoin="round"/>
</g>
<g opacity="0.23">
<path d="M-44.9238 125.035C35.5247 108.587 98.3897 49.9506 177.888 32.6092C238.667 19.347 273.48 57.9042 316.508 92.7733C368.793 135.13 434.713 125.314 498.416 131.591C576.406 139.284 659.369 157.501 737.974 151.894C800.764 147.424 847.741 101.64 898.833 69.6763C955.067 34.5091 1018.42 39.4452 1076.72 9.12099C1133.21 -20.2533 1188.4 -63.9328 1255.44 -54.9734C1336.28 -44.1699 1403.24 12.8277 1484.34 26.034" stroke="#00B093" stroke-opacity="0.05" stroke-width="1.48" stroke-linecap="round" stroke-linejoin="round"/>
</g>
<g opacity="0.22">
<path d="M-45.0732 122.573C34.6861 107.095 98.5942 51.7363 177.46 35.2889C237.363 22.7904 274.598 58.8889 319.376 91.3552C373.319 130.471 437.953 121.847 501.526 128.534C578.212 136.599 659.853 155.301 737.228 149.843C800.13 145.41 847.33 99.4392 898.535 67.4572C954.825 32.3087 1017.95 37.0957 1076.83 8.22438C1133.96 -19.7715 1189.5 -60.7874 1256.13 -52.4985C1336.32 -42.5333 1404.9 9.5655 1485.31 21.8032" stroke="#00B093" stroke-opacity="0.05" stroke-width="1.47" stroke-linecap="round" stroke-linejoin="round"/>
</g>
<g opacity="0.21">
<path d="M-45.2041 120.357C33.8102 106.163 98.7987 54.3812 176.993 39.1446C236.17 27.6333 276.05 60.7329 322.822 90.4424C378.348 125.721 441.995 118.382 505.27 125.554C580.41 134.066 660.467 153.307 736.408 148.055C799.441 143.696 846.92 97.4833 898.237 65.464C954.657 30.2596 1017.47 35.0839 1077.05 7.92626C1134.96 -18.4863 1190.77 -56.2612 1257.02 -48.8851C1336.58 -40.0374 1406.78 6.54788 1486.52 17.4072" stroke="#00B093" stroke-opacity="0.05" stroke-width="1.46" stroke-linecap="round" stroke-linejoin="round"/>
</g>
<g opacity="0.21">
<path d="M-45.3916 118.308C32.859 105.642 98.9278 57.6968 176.433 43.9317C235.052 33.5194 277.818 63.2848 326.676 89.9023C383.636 120.934 446.595 114.918 509.441 122.629C582.849 131.645 661.137 151.482 735.457 146.471C798.62 142.225 846.416 95.6952 897.844 63.6574C954.525 28.3412 1016.85 33.3518 1077.26 8.07537C1136.06 -16.5305 1192.05 -50.6731 1258.01 -44.396C1336.97 -36.8894 1408.75 3.71673 1487.86 12.8438" stroke="#00B093" stroke-opacity="0.05" stroke-width="1.45" stroke-linecap="round" stroke-linejoin="round"/>
</g>
<g opacity="0.2">
<path d="M-45.5215 116.388C31.9654 105.398 99.0773 61.4952 175.875 49.3879C234.139 40.2049 279.924 66.394 330.868 89.6773C389.057 116.276 451.643 111.433 514.005 119.759C585.531 129.296 661.901 149.786 734.47 145.036C797.764 140.901 845.932 94.036 897.435 61.9609C954.47 26.4584 1016.16 31.8043 1077.48 8.55818C1137.2 -14.0732 1193.41 -44.2857 1259.05 -39.2751C1337.47 -33.2773 1410.73 0.995765 1489.3 8.20428" stroke="#00B093" stroke-opacity="0.05" stroke-width="1.44" stroke-linecap="round" stroke-linejoin="round"/>
</g>
<g opacity="0.19">
<path d="M-45.7061 114.546C31.0172 105.325 99.1349 65.5947 175.262 55.2383C233.433 47.322 282.254 69.7857 335.209 89.6231C394.405 111.808 456.823 107.933 518.719 116.911C588.29 127.007 662.629 148.148 733.391 143.696C796.834 139.71 845.375 92.4544 896.971 60.3793C954.453 24.6533 1015.36 30.3531 1077.71 9.24908C1138.28 -11.2589 1194.81 -37.4294 1260.15 -33.7413C1338.12 -29.3454 1412.69 -1.66615 1490.79 3.51206" stroke="#00B093" stroke-opacity="0.05" stroke-width="1.43" stroke-linecap="round" stroke-linejoin="round"/>
</g>
<g opacity="0.18">
<path d="M-45.874 112.74C29.2473 105.401 97.2905 70.9047 171.76 61.61C233.507 53.8986 285.979 74.4624 343.908 91.0215C403.345 108.009 465.67 104.768 526.523 114.547C592.909 125.201 664.603 147.2 732.385 142.822C794.841 138.78 843.605 92.195 894.27 60.4552C951.77 24.4126 1010 29.4232 1073.01 11.4671C1137.27 -6.86158 1196.15 -31.039 1264.34 -27.8725C1340.97 -24.3148 1415.57 -4.17935 1492.35 -1.12457" stroke="#00B093" stroke-opacity="0.05" stroke-width="1.41" stroke-linecap="round" stroke-linejoin="round"/>
</g>
<g opacity="0.18">
<path d="M-46.0254 110.894C28.4068 105.213 97.2882 74.926 171.18 67.4008C233.132 61.105 288.919 77.6268 348.469 90.74C408.67 103.984 470.418 101.152 531.196 111.732C595.626 122.946 665.252 145.577 731.284 141.498C793.87 137.642 843.063 90.6096 893.82 58.8698C951.842 22.5478 1009.21 27.8378 1073.23 11.9865C1138.07 -4.06972 1197.7 -23.9258 1265.48 -22.417C1341.9 -20.722 1417.38 -6.93823 1493.88 -5.82063" stroke="#00B093" stroke-opacity="0.05" stroke-width="1.4" stroke-linecap="round" stroke-linejoin="round"/>
</g>
<g opacity="0.17">
<path d="M-46.1738 108.957C27.625 104.785 97.2329 78.6513 170.622 72.8025C233.059 67.8106 291.77 80.4395 352.847 90.293C413.719 100.109 474.87 97.4456 535.705 108.864C598.272 120.617 665.886 143.863 730.242 140.082C792.958 136.394 842.579 88.9705 893.411 57.1934C951.936 20.6106 1008.51 26.0124 1073.46 12.3218C1138.71 -1.44335 1199.26 -17.2946 1266.56 -17.3319C1342.91 -17.3691 1418.96 -9.82535 1495.33 -10.4773" stroke="#00B093" stroke-opacity="0.05" stroke-width="1.39" stroke-linecap="round" stroke-linejoin="round"/>
</g>
<g opacity="0.16">
<path d="M-46.3232 106.911C26.9354 104.061 97.158 81.9697 170.1 77.5738C233.263 73.7739 294.414 82.7334 356.907 89.6066C418.375 96.3867 478.912 93.6672 539.895 105.961C600.749 118.236 666.426 142.041 729.273 138.52C792.119 135 842.094 87.1851 893.02 55.408C952.01 18.5831 1007.87 24.0035 1073.64 12.3432C1139.1 0.757413 1200.75 -11.4617 1267.55 -12.8587C1343.92 -14.442 1420.32 -12.8587 1496.69 -15.0566" stroke="#00B093" stroke-opacity="0.05" stroke-width="1.38" stroke-linecap="round" stroke-linejoin="round"/>
</g>
<g opacity="0.15">
<path d="M-46.4912 104.67C26.3018 102.864 97.0086 84.5908 169.597 81.4242C233.617 78.6302 296.742 84.2928 360.501 88.5583C422.435 92.712 482.487 89.8435 543.62 102.994C602.946 115.753 666.873 140.08 728.397 136.745C791.355 133.355 841.666 85.2241 892.665 53.4097C952.029 16.3986 1007.33 21.6513 1073.81 11.9095C1214.94 -8.76608 1355.33 -13.1992 1497.9 -19.5137" stroke="#00B093" stroke-opacity="0.05" stroke-width="1.37" stroke-linecap="round" stroke-linejoin="round"/>
</g>
<g opacity="0.15">
<path d="M-46.6553 102.212C25.7838 101.113 96.8632 86.3984 169.153 84.1445C234.03 82.1142 298.683 85.0386 363.504 87.0689C425.791 89.0433 485.509 86.0258 546.772 99.9399C604.85 113.128 667.212 137.901 727.674 134.716C790.744 131.4 841.315 83.0455 892.389 51.2126C951.995 14.071 1006.94 19.0257 1073.94 10.9603C1214.85 -6.00855 1357.05 -16.0483 1498.91 -23.7598" stroke="#00B093" stroke-opacity="0.05" stroke-width="1.36" stroke-linecap="round" stroke-linejoin="round"/>
</g>
<g opacity="0.14">
<path d="M-46.8057 99.4979C25.3727 98.7156 96.7128 87.1671 168.798 85.4534C234.457 83.8701 300.153 84.727 365.812 85.025C428.342 85.3044 487.817 82.4731 549.21 96.8157C606.469 110.19 667.341 135.503 727.114 132.393C790.295 129.096 841.016 80.6105 892.183 48.7589C951.9 11.5801 1006.72 16.0132 1074.02 9.32622C1215.28 -4.69966 1357.94 -19.6569 1499.67 -27.834" stroke="#00B093" stroke-opacity="0.05" stroke-width="1.35" stroke-linecap="round" stroke-linejoin="round"/>
</g>
<g opacity="0.13">
<path d="M-46.9365 96.4423C91.1057 94.6542 229.073 84.4095 367.302 82.2861C429.85 81.3361 489.53 78.747 550.83 93.518C607.53 107.171 667.415 132.746 726.778 129.616C790.034 126.264 840.81 77.797 892.09 45.9082C951.732 8.80386 1006.66 12.5106 1074.07 6.84807C1139.53 1.33458 1204.55 -2.26036 1270.08 -6.02295C1347.23 -10.4561 1422.95 -27.5926 1500.19 -31.6719" stroke="#00B093" stroke-opacity="0.05" stroke-width="1.34" stroke-linecap="round" stroke-linejoin="round"/>
</g>
<g opacity="0.12">
<path d="M-47.0859 93.0338C91.1798 90.2957 229.408 82.2303 367.749 78.9334C430.204 77.4433 490.238 75.1708 551.389 90.128C607.958 103.986 667.303 129.635 726.647 126.45C790.034 123.041 840.68 74.6493 892.052 42.6487C951.471 5.63747 1006.72 8.65501 1074.03 3.49543C1139.51 -1.51515 1204.64 -4.96109 1270.17 -8.3884C1347.49 -12.449 1422.87 -31.9884 1500.36 -35.248" stroke="#00B093" stroke-opacity="0.05" stroke-width="1.33" stroke-linecap="round" stroke-linejoin="round"/>
</g>
<g opacity="0.11">
<path d="M-47.2354 88.9912C91.1235 86.16 229.184 77.9456 367.674 75.8967C430.166 74.984 490.144 72.1155 551.333 87.2031C607.995 101.173 667.153 126.841 726.61 123.749C790.276 120.433 840.642 71.6871 892.052 39.3325C951.322 2.02333 1006.72 5.05948 1074.05 0.104788C1139.51 -4.70089 1204.72 -7.97918 1270.21 -11.3692C1347.59 -15.3926 1422.89 -35.528 1500.44 -38.6387" stroke="#00B093" stroke-opacity="0.05" stroke-width="1.32" stroke-linecap="round" stroke-linejoin="round"/>
</g>
<g opacity="0.11">
<path d="M-47.4014 84.1113C91.1065 81.2986 228.944 73.1401 367.601 72.9911C430.075 72.9166 490.108 69.6942 551.26 84.9308C607.959 99.0499 667.024 124.941 726.574 121.886C790.519 118.589 840.699 69.1168 892.035 36.2966C951.211 -1.53415 1006.53 1.48336 1074.07 -3.13606C1139.51 -7.60646 1204.81 -10.4936 1270.27 -13.9395C1347.7 -18.0188 1422.91 -38.8993 1500.53 -41.9727" stroke="#00B093" stroke-opacity="0.05" stroke-width="1.31" stroke-linecap="round" stroke-linejoin="round"/>
</g>
<g opacity="0.1">
<path d="M-47.5518 78.503C91.161 75.8021 228.682 67.8858 367.562 70.1769C429.961 71.2014 490.144 67.774 551.202 83.1969C607.865 97.5208 666.93 123.784 726.535 120.692C790.779 117.358 840.81 66.8427 892.015 33.4637C951.154 -5.07486 1006.23 -2.11321 1074.07 -6.30421C1139.49 -10.3462 1204.91 -12.6373 1270.28 -16.2136C1347.77 -20.4419 1422.87 -42.1792 1500.57 -45.3457" stroke="#00B093" stroke-opacity="0.05" stroke-width="1.3" stroke-linecap="round" stroke-linejoin="round"/>
</g>
<g opacity="0.09">
<path d="M-47.7021 72.2986C91.29 69.784 228.42 62.2402 367.542 67.4184C429.83 69.7281 490.217 66.2449 551.145 81.9099C607.752 96.4573 666.873 123.242 726.515 120.076C791.057 116.63 841.032 64.8479 892.032 30.8356C951.171 -8.59706 1005.86 -5.6913 1074.13 -9.37938C1139.51 -12.8998 1205.07 -14.4645 1270.38 -18.2084C1347.94 -22.6602 1422.89 -45.3475 1500.7 -48.6816" stroke="#00B093" stroke-opacity="0.05" stroke-width="1.28" stroke-linecap="round" stroke-linejoin="round"/>
</g>
<g opacity="0.08">
<path d="M-47.8291 65.6109C91.5543 63.3384 228.162 56.2789 367.546 64.7354C429.684 68.498 490.333 65.0893 551.074 80.9779C607.569 95.7674 666.839 123.205 726.463 119.908C791.302 116.331 841.259 63.0218 891.998 28.3389C951.156 -12.0996 1005.34 -9.30558 1074.11 -12.4162C1139.43 -15.3592 1205.17 -16.0298 1270.38 -19.9973C1348.03 -24.7098 1422.82 -48.4588 1500.74 -52.0352" stroke="#00B093" stroke-opacity="0.05" stroke-width="1.27" stroke-linecap="round" stroke-linejoin="round"/>
</g>
<g opacity="0.08">
<path d="M-47.998 58.5555C91.8696 56.581 227.882 50.0431 367.526 62.0759C429.478 67.4031 490.443 64.1621 550.998 80.33C607.344 95.3804 666.8 123.525 726.406 120.098C791.543 116.354 841.518 61.3681 891.959 25.9588C951.155 -15.5787 1004.74 -12.9151 1074.11 -15.3924C1139.4 -17.7207 1205.28 -17.4041 1270.42 -21.6137C1348.16 -26.6429 1422.78 -51.4909 1500.81 -55.3652" stroke="#00B093" stroke-opacity="0.05" stroke-width="1.26" stroke-linecap="round" stroke-linejoin="round"/>
</g>
<g opacity="0.07">
<path d="M-48.1279 51.2686C92.3544 49.6108 227.621 43.6503 367.545 59.4643C429.274 66.4307 490.555 63.4132 550.943 79.8605C607.121 95.1716 666.801 124.117 726.388 120.523C791.842 116.574 841.854 59.7996 891.96 23.6639C951.193 -19.0471 1004.15 -16.5325 1074.13 -18.3207C1139.34 -19.9784 1205.43 -18.6187 1270.47 -23.1077C1348.31 -28.4722 1422.75 -54.4936 1500.9 -58.666" stroke="#00B093" stroke-opacity="0.05" stroke-width="1.25" stroke-linecap="round" stroke-linejoin="round"/>
</g>
<g opacity="0.06">
<path d="M-48.2764 43.8584C24.2 43.1878 96.6205 39.6673 169.078 38.6615C236.525 37.7302 301.011 47.4906 367.545 56.8411C429.069 65.4839 490.63 62.7272 550.869 79.4725C606.879 95.0444 666.783 124.81 726.332 121.047C792.084 116.894 842.171 58.2381 891.942 21.3946C951.231 -22.5271 1003.52 -20.1801 1074.13 -21.2605C1139.27 -22.2477 1205.56 -19.8076 1270.49 -24.576C1348.44 -30.2944 1422.67 -57.4893 1500.94 -62.0156" stroke="#00B093" stroke-opacity="0.05" stroke-width="1.24" stroke-linecap="round" stroke-linejoin="round"/>
</g>
<g opacity="0.05">
<path d="M-48.4277 36.4226C24.1604 35.9197 96.674 32.9208 169.262 32.1385C237.1 31.412 300.99 43.0164 367.58 54.2111C428.881 64.5302 490.721 62.0157 550.829 79.0777C606.653 94.929 666.818 125.495 726.311 121.565C792.361 117.206 842.523 56.6698 891.94 19.0998C951.265 -26.014 1002.88 -23.8719 1074.16 -24.2072C1139.25 -24.5052 1205.71 -21.0034 1270.56 -26.0512C1348.61 -32.1422 1422.65 -60.492 1501.05 -65.3535" stroke="#00B093" stroke-opacity="0.05" stroke-width="1.23" stroke-linecap="round" stroke-linejoin="round"/>
</g>
<g opacity="0.05">
<path d="M-48.5771 29.127C24.1041 28.7917 96.7481 26.2957 169.429 25.7183C237.733 25.1595 300.952 38.5521 367.58 51.5721C428.675 63.5118 490.721 61.2394 550.755 78.618C606.411 94.7301 666.799 126.079 726.274 122C792.622 117.455 842.858 55.0739 891.921 16.8148C918.911 -4.23338 947.055 -23.2698 981.682 -27.4795C1011.41 -31.093 1044.17 -27.2932 1074.16 -27.1442C1139.15 -26.7903 1205.82 -22.2267 1270.58 -27.554C1348.74 -33.9802 1422.56 -63.4848 1501.11 -68.6816" stroke="#00B093" stroke-opacity="0.05" stroke-width="1.22" stroke-linecap="round" stroke-linejoin="round"/>
</g>
<g opacity="0.04">
<path d="M-48.7256 22.0648C24.0488 21.8785 96.8046 19.8855 169.579 19.4757C238.386 19.1032 300.897 34.1163 367.599 48.8872C428.49 62.3729 490.721 60.2867 550.699 77.9448C606.188 94.299 666.799 126.393 726.237 122.183C792.883 117.471 843.156 53.3204 891.921 14.4279C951.284 -32.9397 1001.71 -31.2261 1074.2 -30.1271C1139.13 -29.1585 1205.95 -23.5891 1270.66 -29.1771C1348.93 -35.9386 1422.54 -66.5422 1501.22 -72.0371" stroke="#00B093" stroke-opacity="0.05" stroke-width="1.21" stroke-linecap="round" stroke-linejoin="round"/>
</g>
<g opacity="0.03">
<path d="M-48.875 15.3612C23.9925 15.3053 96.8414 13.778 169.69 13.5358C239.037 13.3123 300.803 29.7783 367.561 46.1884C428.284 61.0897 490.628 59.0966 550.606 77.0527C605.964 93.6305 666.743 126.376 726.181 122.073C793.125 117.212 843.417 51.4783 891.883 11.9712C951.209 -36.365 1001.17 -34.8749 1074.18 -33.124C1139.04 -31.578 1206 -25.1332 1270.66 -30.926C1349.04 -37.9669 1422.43 -69.6136 1501.25 -75.332" stroke="#00B093" stroke-opacity="0.05" stroke-width="1.2" stroke-linecap="round" stroke-linejoin="round"/>
</g>
<g opacity="0.02">
<path d="M-49.0225 9.13829C23.9196 9.17554 96.8616 8.07656 169.785 7.9648C239.672 7.87167 300.675 25.5298 367.544 43.3927C428.118 59.5793 490.555 57.549 550.551 75.7659C605.835 92.5485 666.689 125.834 726.145 121.457C793.387 116.502 843.623 49.3533 891.866 9.32456C951.136 -39.8685 1000.76 -38.546 1074.2 -36.2177C1139.02 -34.1501 1206.08 -26.9416 1270.71 -32.9394C1349.19 -40.2038 1422.39 -72.8004 1501.35 -78.7051" stroke="#00B093" stroke-opacity="0.05" stroke-width="1.19" stroke-linecap="round" stroke-linejoin="round"/>
</g>
<g opacity="0.02">
<path d="M-49.1904 3.49173C23.8261 3.58486 96.824 2.87704 169.822 2.85842C240.249 2.85842 300.488 21.3919 367.507 40.5215C427.969 57.7698 490.443 55.5905 550.495 74.0309C605.742 90.9998 666.595 124.677 726.107 120.281C793.629 115.289 843.791 47.0222 891.866 6.50924C951.043 -43.3543 1000.48 -42.2181 1074.22 -39.3869C1139 -36.9095 1206.12 -29.0863 1270.75 -35.1959C1349.34 -42.6279 1422.33 -76.0814 1501.41 -82.0605" stroke="#00B093" stroke-opacity="0.05" stroke-width="1.18" stroke-linecap="round" stroke-linejoin="round"/>
</g>
</g>
</g>
<defs>
<clipPath id="clip0_1177_5990">
<rect width="1429" height="387" fill="white" transform="translate(-29)"/>
</clipPath>
</defs>
</svg>
