<svg width="51" height="69" viewBox="0 0 51 69" fill="none" xmlns="http://www.w3.org/2000/svg">
<path fill-rule="evenodd" clip-rule="evenodd" d="M48.0691 8.18685C49.6831 8.18685 51 9.51525 51 11.1433V65.5436C51 67.1716 49.6831 68.5 48.0691 68.5H2.93091C1.31694 68.5 0 67.1716 0 65.5436V11.1433C0 9.51525 1.31694 8.18685 2.93091 8.18685H12.0404V11.3451C12.0404 12.9333 13.3202 14.2243 14.8948 14.2243H36.1045C37.679 14.2243 38.9589 12.9333 38.9589 11.3451V8.18685H48.0691ZM14.8955 4.34304C14.5212 4.34304 14.2158 4.65107 14.2158 5.02865V11.3451C14.2158 11.7226 14.5212 12.0307 14.8955 12.0307H36.1052C36.4796 12.0307 36.7849 11.7226 36.7849 11.3451V5.02865C36.7849 4.65107 36.4796 4.34304 36.1052 4.34304H30.3442C29.816 2.13796 27.8482 0.5 25.5 0.5C23.1518 0.5 21.184 2.13796 20.6566 4.34381L14.8955 4.34304ZM9.05416 45.0344C8.67984 45.0344 8.37447 45.3424 8.37447 45.72V54.4364C8.37447 54.8139 8.67984 55.122 9.05416 55.122H12.908C13.2823 55.122 13.5877 54.8139 13.5877 54.4364V45.72C13.5877 45.3424 13.2823 45.0344 12.908 45.0344H9.05416ZM22.5873 39.749C21.3029 39.749 20.0178 39.749 18.7334 39.749C18.3591 39.749 18.0538 40.057 18.0538 40.4346C18.0538 45.3989 18.0538 49.472 18.0538 54.4364C18.0538 54.8139 18.3591 55.122 18.7334 55.122C20.0178 55.122 21.3029 55.122 22.5873 55.122C22.9616 55.122 23.267 54.8139 23.267 54.4364C23.267 49.4713 23.267 45.3989 23.267 40.4346C23.267 40.057 22.9616 39.749 22.5873 39.749ZM32.2666 34.2306H28.4127C28.0384 34.2306 27.733 34.5386 27.733 34.9162V54.4371C27.733 54.8147 28.0384 55.1227 28.4127 55.1227H32.2666C32.6409 55.1227 32.9462 54.8147 32.9462 54.4371V34.9162C32.9462 34.5386 32.6409 34.2306 32.2666 34.2306ZM38.092 29.2655C37.7177 29.2655 37.4123 29.5735 37.4123 29.9511V54.4364C37.4123 54.8139 37.7177 55.122 38.092 55.122H41.9458C42.3202 55.122 42.6255 54.8139 42.6255 54.4364V29.9511C42.6255 29.5735 42.3202 29.2655 41.9458 29.2655H38.092ZM38.5118 20.6003L39.612 20.5399C34.7997 24.7583 29.7865 28.2551 24.7286 31.1626C18.9592 34.4797 13.1285 37.0341 7.46898 39.0221C6.90371 39.2209 6.60516 39.8446 6.80217 40.4148C6.99918 40.9849 7.61749 41.2861 8.18276 41.0874C13.959 39.0581 19.9094 36.4509 25.7993 33.065C31.0095 30.0696 36.1704 26.4665 41.1184 22.1198L40.9494 23.293C40.8653 23.8915 41.2775 24.4456 41.8708 24.5312C42.4641 24.6161 43.0135 24.2003 43.0984 23.6018L43.7 19.4347C43.7098 19.3667 43.7121 19.2964 43.7083 19.2245C43.678 18.6215 43.1681 18.1567 42.5702 18.1881L38.4012 18.4166C37.8033 18.4472 37.3426 18.9616 37.3737 19.5646C37.404 20.1662 37.9132 20.6309 38.5118 20.6003ZM6.7658 60.2047H44.2342C44.8343 60.2047 45.3215 59.714 45.3215 59.1079C45.3215 58.5026 44.8351 58.0111 44.2342 58.0111H6.7658C6.16568 58.0111 5.67845 58.5018 5.67845 59.1079C5.67845 59.714 6.16568 60.2047 6.7658 60.2047Z" fill="#00B093"/>
</svg>
